{
  "accessors": [
    {
      "name": "Slider_1_0_positions",
      "componentType": 5126,
      "count": 1132,
      "min": [
        -0.27553999423980713,
        -1.2666800022125244,
        5.14769983291626
      ],
      "max": [
        0.27184998989105225,
        1.1747499704360962,
        5.648399829864502
      ],
      "type": "VEC3",
      "bufferView": 0,
      "byteOffset": 0
    },
    {
      "name": "Slider_1_0_normals",
      "componentType": 5126,
      "count": 1132,
      "min": [
        -1,
        -1,
        -1
      ],
      "max": [
        1,
        1,
        1
      ],
      "type": "VEC3",
      "bufferView": 1,
      "byteOffset": 0
    },
    {
      "name": "Slider_1_0_texcoords",
      "componentType": 5126,
      "count": 1132,
      "min": [
        -0.9081299901008606,
        0
      ],
      "max": [
        1,
        1.4143500328063965
      ],
      "type": "VEC2",
      "bufferView": 2,
      "byteOffset": 0
    },
    {
      "name": "Slider_1_0_indices",
      "componentType": 5123,
      "count": 2184,
      "min": [
        0
      ],
      "max": [
        1131
      ],
      "type": "SCALAR",
      "bufferView": 3,
      "byteOffset": 0
    },
    {
      "name": "Cup_1_0_positions",
      "componentType": 5126,
      "count": 1721,
      "min": [
        -1.684440016746521,
        -1.6588499546051025,
        0.25290000438690186
      ],
      "max": [
        1.684440016746521,
        1.6588499546051025,
        5.032529830932617
      ],
      "type": "VEC3",
      "bufferView": 0,
      "byteOffset": 13584
    },
    {
      "name": "Cup_1_0_normals",
      "componentType": 5126,
      "count": 1721,
      "min": [
        -1,
        -1,
        -1
      ],
      "max": [
        1,
        1,
        1
      ],
      "type": "VEC3",
      "bufferView": 1,
      "byteOffset": 13584
    },
    {
      "name": "Cup_1_0_texcoords",
      "componentType": 5126,
      "count": 1721,
      "min": [
        -1.6386699676513672,
        -0.637939989566803
      ],
      "max": [
        1.6369099617004395,
        2.6391100883483887
      ],
      "type": "VEC2",
      "bufferView": 2,
      "byteOffset": 9056
    },
    {
      "name": "Cup_1_0_indices",
      "componentType": 5123,
      "count": 5292,
      "min": [
        0
      ],
      "max": [
        1720
      ],
      "type": "SCALAR",
      "bufferView": 3,
      "byteOffset": 4368
    },
    {
      "name": "Cup_1_1_positions",
      "componentType": 5126,
      "count": 576,
      "min": [
        -1.576069951057434,
        -1.5521199703216553,
        0.09937000274658203
      ],
      "max": [
        1.576069951057434,
        1.5521199703216553,
        4.614449977874756
      ],
      "type": "VEC3",
      "bufferView": 0,
      "byteOffset": 34236
    },
    {
      "name": "Cup_1_1_normals",
      "componentType": 5126,
      "count": 576,
      "min": [
        -0.979499340057373,
        -0.9946076273918152,
        -0.10371038317680359
      ],
      "max": [
        0.979499340057373,
        0.9946076273918152,
        -0.10369951277971268
      ],
      "type": "VEC3",
      "bufferView": 1,
      "byteOffset": 34236
    },
    {
      "name": "Cup_1_1_texcoords",
      "componentType": 5126,
      "count": 576,
      "min": [
        0.00031999999191612005,
        0.1772100031375885
      ],
      "max": [
        1.0000200271606445,
        0.784089982509613
      ],
      "type": "VEC2",
      "bufferView": 2,
      "byteOffset": 22824
    },
    {
      "name": "Cup_1_1_indices",
      "componentType": 5123,
      "count": 864,
      "min": [
        0
      ],
      "max": [
        575
      ],
      "type": "SCALAR",
      "bufferView": 3,
      "byteOffset": 14952
    },
    {
      "name": "Cup_1_2_positions",
      "componentType": 5126,
      "count": 235,
      "min": [
        -1.0980199575424194,
        -1.0813299417495728,
        0.05688999965786934
      ],
      "max": [
        1.0980199575424194,
        1.081339955329895,
        0.09937000274658203
      ],
      "type": "VEC3",
      "bufferView": 0,
      "byteOffset": 41148
    },
    {
      "name": "Cup_1_2_normals",
      "componentType": 5126,
      "count": 235,
      "min": [
        -0.9848092198371887,
        -1,
        -1
      ],
      "max": [
        0.9848092198371887,
        1,
        0
      ],
      "type": "VEC3",
      "bufferView": 1,
      "byteOffset": 41148
    },
    {
      "name": "Cup_1_2_texcoords",
      "componentType": 5126,
      "count": 235,
      "min": [
        0,
        0
      ],
      "max": [
        1,
        1
      ],
      "type": "VEC2",
      "bufferView": 2,
      "byteOffset": 27432
    },
    {
      "name": "Cup_1_2_indices",
      "componentType": 5123,
      "count": 486,
      "min": [
        0
      ],
      "max": [
        234
      ],
      "type": "SCALAR",
      "bufferView": 3,
      "byteOffset": 16680
    },
    {
      "name": "Cup_1_3_positions",
      "componentType": 5126,
      "count": 828,
      "min": [
        -1.6808199882507324,
        -1.6552799940109253,
        0.058800000697374344
      ],
      "max": [
        1.6808199882507324,
        1.6552799940109253,
        4.636290073394775
      ],
      "type": "VEC3",
      "bufferView": 0,
      "byteOffset": 43968
    },
    {
      "name": "Cup_1_3_normals",
      "componentType": 5126,
      "count": 828,
      "min": [
        -0.99262535572052,
        -0.9935460686683655,
        -0.9998341798782349
      ],
      "max": [
        0.9926254749298096,
        0.9935460686683655,
        0.9942705035209656
      ],
      "type": "VEC3",
      "bufferView": 1,
      "byteOffset": 43968
    },
    {
      "name": "Cup_1_3_texcoords",
      "componentType": 5126,
      "count": 828,
      "min": [
        0.007600000128149986,
        0
      ],
      "max": [
        0.9923999905586243,
        1
      ],
      "type": "VEC2",
      "bufferView": 2,
      "byteOffset": 29312
    },
    {
      "name": "Cup_1_3_indices",
      "componentType": 5123,
      "count": 1296,
      "min": [
        0
      ],
      "max": [
        827
      ],
      "type": "SCALAR",
      "bufferView": 3,
      "byteOffset": 17652
    },
    {
      "name": "Cap_1_0_positions",
      "componentType": 5126,
      "count": 3887,
      "min": [
        -1.7020200490951538,
        -1.6761599779129028,
        4.726870059967041
      ],
      "max": [
        1.7020200490951538,
        1.6761599779129028,
        5.711120128631592
      ],
      "type": "VEC3",
      "bufferView": 0,
      "byteOffset": 53904
    },
    {
      "name": "Cap_1_0_normals",
      "componentType": 5126,
      "count": 3887,
      "min": [
        -1,
        -1,
        -1
      ],
      "max": [
        1,
        1,
        1
      ],
      "type": "VEC3",
      "bufferView": 1,
      "byteOffset": 53904
    },
    {
      "name": "Cap_1_0_texcoords",
      "componentType": 5126,
      "count": 3887,
      "min": [
        -1.6288100481033325,
        -0.6272000074386597
      ],
      "max": [
        1.6306099891662598,
        2.6303699016571045
      ],
      "type": "VEC2",
      "bufferView": 2,
      "byteOffset": 35936
    },
    {
      "name": "Cap_1_0_indices",
      "componentType": 5123,
      "count": 9720,
      "min": [
        0
      ],
      "max": [
        3886
      ],
      "type": "SCALAR",
      "bufferView": 3,
      "byteOffset": 20244
    }
  ],
  "asset": {
    "generator": "obj2gltf",
    "version": "2.0"
  },
  "buffers": [
    {
      "name": "StrBucks",
      "byteLength": 307812,
      "uri": "StrBucks.bin"
    }
  ],
  "bufferViews": [
    {
      "name": "bufferView_0",
      "buffer": 0,
      "byteLength": 100548,
      "byteOffset": 0,
      "byteStride": 12,
      "target": 34962
    },
    {
      "name": "bufferView_1",
      "buffer": 0,
      "byteLength": 100548,
      "byteOffset": 100548,
      "byteStride": 12,
      "target": 34962
    },
    {
      "name": "bufferView_2",
      "buffer": 0,
      "byteLength": 67032,
      "byteOffset": 201096,
      "byteStride": 8,
      "target": 34962
    },
    {
      "name": "bufferView_3",
      "buffer": 0,
      "byteLength": 39684,
      "byteOffset": 268128,
      "target": 34963
    }
  ],
  "images": [
    {
      "name": "Text",
      "uri": "Text.png"
    }
  ],
  "materials": [
    {
      "name": "Plastic_Black",
      "pbrMetallicRoughness": {
        "baseColorFactor": [
          0.0588235,
          0.0588235,
          0.0588235,
          1
        ],
        "metallicFactor": 0,
        "roughnessFactor": 0.9773726
      },
      "emissiveFactor": [
        0,
        0,
        0
      ],
      "alphaMode": "OPAQUE",
      "doubleSided": false
    },
    {
      "name": "Paint_Black",
      "pbrMetallicRoughness": {
        "baseColorFactor": [
          0.0392157,
          0.0392157,
          0.0392157,
          1
        ],
        "metallicFactor": 0,
        "roughnessFactor": 0.9359999999999999
      },
      "emissiveFactor": [
        0,
        0,
        0
      ],
      "alphaMode": "OPAQUE",
      "doubleSided": false
    },
    {
      "name": "Plastic_Text",
      "pbrMetallicRoughness": {
        "baseColorFactor": [
          0.5,
          0.5,
          0.5,
          1
        ],
        "metallicFactor": 0,
        "roughnessFactor": 0.9359999999999999
      },
      "occlusionTexture": {
        "index": 0
      },
      "emissiveFactor": [
        0,
        0,
        0
      ],
      "alphaMode": "OPAQUE",
      "doubleSided": false
    },
    {
      "name": "Wh",
      "pbrMetallicRoughness": {
        "baseColorFactor": [
          0.0196078,
          0.0196078,
          0.0196078,
          1
        ],
        "metallicFactor": 0,
        "roughnessFactor": 0.9359999999999999
      },
      "emissiveFactor": [
        0,
        0,
        0
      ],
      "alphaMode": "OPAQUE",
      "doubleSided": false
    },
    {
      "name": "Polypropylene__PP_",
      "pbrMetallicRoughness": {
        "baseColorFactor": [
          0.87451,
          0.87451,
          0.87451,
          0.454
        ],
        "metallicFactor": 0,
        "roughnessFactor": 0.9359999999999999
      },
      "emissiveFactor": [
        0,
        0,
        0
      ],
      "alphaMode": "BLEND",
      "doubleSided": true
    }
  ],
  "meshes": [
    {
      "name": "Slider_1",
      "primitives": [
        {
          "attributes": {
            "POSITION": 0,
            "NORMAL": 1,
            "TEXCOORD_0": 2
          },
          "indices": 3,
          "material": 0,
          "mode": 4
        }
      ]
    },
    {
      "name": "Cup_1",
      "primitives": [
        {
          "attributes": {
            "POSITION": 4,
            "NORMAL": 5,
            "TEXCOORD_0": 6
          },
          "indices": 7,
          "material": 1,
          "mode": 4
        },
        {
          "attributes": {
            "POSITION": 8,
            "NORMAL": 9,
            "TEXCOORD_0": 10
          },
          "indices": 11,
          "material": 2,
          "mode": 4
        },
        {
          "attributes": {
            "POSITION": 12,
            "NORMAL": 13,
            "TEXCOORD_0": 14
          },
          "indices": 15,
          "material": 3,
          "mode": 4
        },
        {
          "attributes": {
            "POSITION": 16,
            "NORMAL": 17,
            "TEXCOORD_0": 18
          },
          "indices": 19,
          "material": 4,
          "mode": 4
        }
      ]
    },
    {
      "name": "Cap_1",
      "primitives": [
        {
          "attributes": {
            "POSITION": 20,
            "NORMAL": 21,
            "TEXCOORD_0": 22
          },
          "indices": 23,
          "material": 0,
          "mode": 4
        }
      ]
    }
  ],
  "nodes": [
    {
      "name": "Slider",
      "mesh": 0
    },
    {
      "name": "Cup",
      "mesh": 1
    },
    {
      "name": "Cap",
      "mesh": 2
    }
  ],
  "samplers": [
    {
      "wrapS": 10497,
      "wrapT": 10497
    }
  ],
  "scene": 0,
  "scenes": [
    {
      "nodes": [
        0,
        1,
        2
      ]
    }
  ],
  "textures": [
    {
      "name": "Text",
      "sampler": 0,
      "source": 0
    }
  ]
}
